REM DIRINDEX 1\2,1\3\5,1\3\6,1\4\7,1\4\8
REM DIRNAME cjc139,folder01,folder02,folder03,folder04,folder05,folder06,folder07
TITLE ""
FILE "EG_E1.5_02.mp3" MP3
  TRACK 01 AUDIO
    TITLE "0:"
    INDEX 01 00:00:00
  TRACK 02 AUDIO
    TITLE "2:cjc139_0025"
    INDEX 01 00:00:17
  TRACK 03 AUDIO
    TITLE "0:"
    INDEX 01 00:01:34
  TRACK 04 AUDIO
    TITLE "2:cjc139_0026"
    INDEX 01 00:02:57
  TRACK 05 AUDIO
    TITLE "0:"
    INDEX 01 00:04:40
  TRACK 06 AUDIO
    TITLE "2:cjc139_0027"
    INDEX 01 00:05:61
  TRACK 07 AUDIO
    TITLE "0:"
    INDEX 01 00:07:52
  TRACK 08 AUDIO
    TITLE "2:cjc139_0028"
    INDEX 01 00:09:00
  TRACK 09 AUDIO
    TITLE "0:"
    INDEX 01 00:10:57
  TRACK 10 AUDIO
    TITLE "2:cjc139_0029"
    INDEX 01 00:12:05
  TRACK 11 AUDIO
    TITLE "0:"
    INDEX 01 00:13:14
  TRACK 12 AUDIO
    TITLE "2:cjc139_0030"
    INDEX 01 00:14:37
  TRACK 13 AUDIO
    TITLE "0:"
    INDEX 01 00:16:00
  TRACK 14 AUDIO
    TITLE "2:cjc139_0031"
    INDEX 01 00:17:25
  TRACK 15 AUDIO
    TITLE "0:"
    INDEX 01 00:19:05
  TRACK 16 AUDIO
    TITLE "2:cjc139_0032"
    INDEX 01 00:20:30
  TRACK 17 AUDIO
    TITLE "0:"
    INDEX 01 00:22:29
  TRACK 18 AUDIO
    TITLE "2:cjc139_0033"
    INDEX 01 00:23:55
  TRACK 19 AUDIO
    TITLE "0:"
    INDEX 01 00:25:15
  TRACK 20 AUDIO
    TITLE "2:cjc139_0034"
    INDEX 01 00:26:38
  TRACK 21 AUDIO
    TITLE "0:"
    INDEX 01 00:28:49
  TRACK 22 AUDIO
    TITLE "2:cjc139_0035"
    INDEX 01 00:29:72
  TRACK 23 AUDIO
    TITLE "0:"
    INDEX 01 00:32:62
  TRACK 24 AUDIO
    TITLE "2:cjc139_0036"
    INDEX 01 00:34:12
  TRACK 25 AUDIO
    TITLE "0:"
    INDEX 01 00:36:13
  TRACK 26 AUDIO
    TITLE "2:cjc139_0037"
    INDEX 01 00:37:36
  TRACK 27 AUDIO
    TITLE "0:"
    INDEX 01 00:39:45
  TRACK 28 AUDIO
    TITLE "2:cjc139_0038"
    INDEX 01 00:40:66
  TRACK 29 AUDIO
    TITLE "0:"
    INDEX 01 00:42:12
  TRACK 30 AUDIO
    TITLE "2:cjc139_0039"
    INDEX 01 00:43:35
  TRACK 31 AUDIO
    TITLE "0:"
    INDEX 01 00:45:10
  TRACK 32 AUDIO
    TITLE "2:cjc139_0040"
    INDEX 01 00:46:35
  TRACK 33 AUDIO
    TITLE "0:"
    INDEX 01 00:48:65
  TRACK 34 AUDIO
    TITLE "2:cjc139_0041"
    INDEX 01 00:50:13
  TRACK 35 AUDIO
    TITLE "0:"
    INDEX 01 00:51:67
  TRACK 36 AUDIO
    TITLE "2:cjc139_0042"
    INDEX 01 00:53:17
  TRACK 37 AUDIO
    TITLE "0:"
    INDEX 01 00:54:54
  TRACK 38 AUDIO
    TITLE "2:cjc139_0043"
    INDEX 01 00:56:00
  TRACK 39 AUDIO
    TITLE "0:"
    INDEX 01 00:58:26
  TRACK 40 AUDIO
    TITLE "2:cjc139_0044"
    INDEX 01 00:59:47
  TRACK 41 AUDIO
    TITLE "0:"
    INDEX 01 01:01:68
  TRACK 42 AUDIO
    TITLE "2:cjc139_0045"
    INDEX 01 01:03:16
  TRACK 43 AUDIO
    TITLE "0:"
    INDEX 01 01:05:38
  TRACK 44 AUDIO
    TITLE "2:cjc139_0046"
    INDEX 01 01:06:59
  TRACK 45 AUDIO
    TITLE "0:"
    INDEX 01 01:09:09
  TRACK 46 AUDIO
    TITLE "2:cjc139_0047"
    INDEX 01 01:10:30
  TRACK 47 AUDIO
    TITLE "0:"
    INDEX 01 01:12:07
  TRACK 48 AUDIO
    TITLE "2:cjc139_0048"
    INDEX 01 01:13:28
  TRACK 49 AUDIO
    TITLE "0:"
    INDEX 01 01:15:35
  TRACK 50 AUDIO
    TITLE "2:cjc139_0049"
    INDEX 01 01:16:61
  TRACK 51 AUDIO
    TITLE "0:"
    INDEX 01 01:19:01
  TRACK 52 AUDIO
    TITLE "2:cjc139_0050"
    INDEX 01 01:20:26
  TRACK 53 AUDIO
    TITLE "0:"
    INDEX 01 01:22:70
  TRACK 54 AUDIO
    TITLE "2:cjc139_0051"
    INDEX 01 01:24:20
  TRACK 55 AUDIO
    TITLE "0:"
    INDEX 01 01:26:27
  TRACK 56 AUDIO
    TITLE "2:cjc139_0052"
    INDEX 01 01:27:51
  TRACK 57 AUDIO
    TITLE "0:"
    INDEX 01 01:29:31
  TRACK 58 AUDIO
    TITLE "2:cjc139_0053"
    INDEX 01 01:30:52
  TRACK 59 AUDIO
    TITLE "0:"
    INDEX 01 01:32:47
  TRACK 60 AUDIO
    TITLE "2:cjc139_0054"
    INDEX 01 01:33:70
  TRACK 61 AUDIO
    TITLE "0:"
    INDEX 01 01:35:29
  TRACK 62 AUDIO
    TITLE "2:cjc139_0055"
    INDEX 01 01:36:52
  TRACK 63 AUDIO
    TITLE "0:"
    INDEX 01 01:38:43
